<svg id="Слой_1" data-name="Слой 1" xmlns="http://www.w3.org/2000/svg" viewBox="0 0 141 39"><defs><style>.cls-1{fill:#009db5;}.cls-2{fill:#0078b3;}</style></defs><path class="cls-1" d="M33,33.24H34a1.1,1.1,0,0,1,.87.29,1.3,1.3,0,0,1,.33,1v.13a1.33,1.33,0,0,1-.27.88,1.09,1.09,0,0,1-.87.35h-.37v1.74H33Zm.62,2.09H34a.53.53,0,0,0,.42-.17.58.58,0,0,0,.12-.45v-.29a.57.57,0,0,0-.17-.5.7.7,0,0,0-.49-.11h-.22Z"/><path class="cls-1" d="M38.4,33.24v4.39h-.63V33.24Z"/><path class="cls-1" d="M41.22,33.24h.94a1.1,1.1,0,0,1,.87.29,1.33,1.33,0,0,1,.32,1v.13a1.28,1.28,0,0,1-.27.88,1.06,1.06,0,0,1-.86.35h-.37v1.74h-.63Zm.63,2.09h.34a.53.53,0,0,0,.42-.17.58.58,0,0,0,.12-.45v-.29a.59.59,0,0,0-.17-.5.71.71,0,0,0-.49-.11h-.22Z"/><path class="cls-1" d="M46,33.24h1.86v.6H46.61v1.29H47.7v.56H46.61V37h1.25v.6H46Z"/><path class="cls-1" d="M55.5,34.34a.58.58,0,0,0-.11-.4.37.37,0,0,0-.33-.15.4.4,0,0,0-.3.12.63.63,0,0,0-.14.44.92.92,0,0,0,.11.47A.59.59,0,0,0,55,35l.38.14a1,1,0,0,1,.58.37,1.25,1.25,0,0,1,.18.76v.15a1.42,1.42,0,0,1-.3,1,1.11,1.11,0,0,1-.81.29,1,1,0,0,1-.88-.38,1.38,1.38,0,0,1-.2-.74v-.15h.63v.12a.65.65,0,0,0,.1.39.41.41,0,0,0,.34.14.48.48,0,0,0,.4-.15.74.74,0,0,0,.1-.43v-.17a.85.85,0,0,0-.1-.45.7.7,0,0,0-.3-.19l-.46-.16a.92.92,0,0,1-.58-.49,1.71,1.71,0,0,1-.09-.64v-.13a1.07,1.07,0,0,1,.33-.81,1.08,1.08,0,0,1,1.8.86v.14H55.5Z"/><path class="cls-1" d="M59.88,35.78v1.85h-.62V35.76l-.92-2.52H59L59.58,35h0l.53-1.74h.67Z"/><path class="cls-1" d="M64.52,34.34a.64.64,0,0,0-.11-.4.4.4,0,0,0-.33-.15.42.42,0,0,0-.31.12.62.62,0,0,0-.13.44,1,1,0,0,0,.1.47A.61.61,0,0,0,64,35l.38.14a1,1,0,0,1,.57.37,1.19,1.19,0,0,1,.19.76v.15a1.42,1.42,0,0,1-.3,1,1.12,1.12,0,0,1-.82.29,1,1,0,0,1-.87-.38,1.38,1.38,0,0,1-.2-.74v-.15h.62v.12a.6.6,0,0,0,.11.39.41.41,0,0,0,.34.14.46.46,0,0,0,.39-.15.67.67,0,0,0,.1-.43v-.17a.85.85,0,0,0-.1-.45.6.6,0,0,0-.3-.19l-.45-.16a.9.9,0,0,1-.58-.49,1.54,1.54,0,0,1-.1-.64v-.13a1.11,1.11,0,0,1,.33-.81,1,1,0,0,1,.76-.27,1,1,0,0,1,1,1.13v.14h-.62Z"/><path class="cls-1" d="M69.49,33.24v.6h-.77v3.79h-.63V33.84h-.78v-.6Z"/><path class="cls-1" d="M72.06,33.24h1.86v.6H72.69v1.29h1.09v.56H72.69V37h1.25v.6H72.06Z"/><path class="cls-1" d="M76.61,33.24h.62l.86,2.42h0l.82-2.42h.63v4.39h-.63V34.88h0l-.66,2h-.33l-.66-2h0v2.75h-.62Z"/><path class="cls-1" d="M83.83,34.34a.63.63,0,0,0-.1-.4.45.45,0,0,0-.64,0,.62.62,0,0,0-.13.44.91.91,0,0,0,.1.47.64.64,0,0,0,.28.19l.39.14a1,1,0,0,1,.57.37,1.18,1.18,0,0,1,.18.76v.15a1.42,1.42,0,0,1-.29,1,1.14,1.14,0,0,1-.82.29,1.06,1.06,0,0,1-.88-.38,1.38,1.38,0,0,1-.2-.74v-.15h.63v.12a.65.65,0,0,0,.1.39.43.43,0,0,0,.34.14.48.48,0,0,0,.4-.15.73.73,0,0,0,.09-.43v-.17a.85.85,0,0,0-.09-.45.6.6,0,0,0-.3-.19L83,35.52a.91.91,0,0,1-.57-.49,1.54,1.54,0,0,1-.1-.64v-.13a1.07,1.07,0,0,1,.33-.81,1,1,0,0,1,.75-.27,1,1,0,0,1,1,1.13v.14h-.63Z"/><path class="cls-1" d="M92.19,34.34a.64.64,0,0,0-.11-.4.4.4,0,0,0-.33-.15.42.42,0,0,0-.31.12.62.62,0,0,0-.13.44,1,1,0,0,0,.1.47.57.57,0,0,0,.29.19l.38.14a1,1,0,0,1,.57.37,1.19,1.19,0,0,1,.19.76v.15a1.42,1.42,0,0,1-.31,1,1.1,1.1,0,0,1-.81.29,1.06,1.06,0,0,1-.88-.38,1.38,1.38,0,0,1-.2-.74v-.15h.63v.12a.65.65,0,0,0,.1.39.43.43,0,0,0,.34.14.48.48,0,0,0,.4-.15.74.74,0,0,0,.1-.43v-.17a.85.85,0,0,0-.1-.45.6.6,0,0,0-.3-.19l-.45-.16a.9.9,0,0,1-.58-.49,1.54,1.54,0,0,1-.1-.64v-.13a1.11,1.11,0,0,1,.33-.81,1,1,0,0,1,.76-.27,1,1,0,0,1,1,1.13v.14h-.62Z"/><path class="cls-1" d="M96.19,33.24v4.39h-.63V33.24Z"/><path class="cls-1" d="M99.63,33.24,100.68,36V33.24h.63v4.39h-.63l-1.05-2.76v2.76H99V33.24Z"/><path class="cls-1" d="M105.56,34.24a.51.51,0,0,0-.08-.29.4.4,0,0,0-.33-.16.38.38,0,0,0-.32.15.65.65,0,0,0-.11.43v2.16a.57.57,0,0,0,.09.39.37.37,0,0,0,.31.15.45.45,0,0,0,.36-.15.68.68,0,0,0,.08-.35v-.16h.63v.18a1.13,1.13,0,0,1-.26.8,1.05,1.05,0,0,1-.82.3,1,1,0,0,1-.79-.33,1.11,1.11,0,0,1-.22-.79V34.29a1.1,1.1,0,0,1,.31-.86,1.17,1.17,0,0,1,1.48,0,1.08,1.08,0,0,1,.28.73v.3h-.61Z"/><path class="cls-1" d="M108.91,33.24h1.87v.6h-1.24v1.29h1.09v.56h-1.09V37h1.26v.6h-1.89Z"/><path class="cls-1" d="M117.75,33.91l-.67.49v-.65l.7-.51h.6v4.39h-.63Z"/><path class="cls-1" d="M121.88,37.63l.77-1.9a.54.54,0,0,1-.33.07.65.65,0,0,1-.48-.22.91.91,0,0,1-.19-.58v-.86a1,1,0,0,1,.25-.71,1,1,0,0,1,.72-.25.92.92,0,0,1,.65.24.91.91,0,0,1,.29.73v.64a2,2,0,0,1-.23.89l-.78,2Zm.4-2.7a.35.35,0,0,0,.07.25.25.25,0,0,0,.22.11.38.38,0,0,0,.25-.1.43.43,0,0,0,.11-.28v-.75a.4.4,0,0,0-.07-.25.29.29,0,0,0-.24-.12.35.35,0,0,0-.26.11.5.5,0,0,0-.08.32Z"/><path class="cls-1" d="M126.56,37.63l.78-1.9a.55.55,0,0,1-.33.07.67.67,0,0,1-.49-.22.92.92,0,0,1-.18-.58v-.86a1,1,0,0,1,.25-.71,1,1,0,0,1,.71-.25,1,1,0,0,1,.66.24.93.93,0,0,1,.28.73v.64a2,2,0,0,1-.22.89l-.78,2Zm.4-2.7a.35.35,0,0,0,.07.25.28.28,0,0,0,.23.11.34.34,0,0,0,.24-.1.39.39,0,0,0,.12-.28v-.75a.4.4,0,0,0-.07-.25.29.29,0,0,0-.24-.12.35.35,0,0,0-.26.11.45.45,0,0,0-.09.32Z"/><path class="cls-1" d="M132.94,33.24v.58l-1,3.81h-.63l1-3.81h-.67v.52h-.57v-1.1Z"/><path class="cls-2" d="M37.43,8.93H32.75V25.84h3.41V19H38c2,0,4.43-.9,4.43-3.46V12.36C42.45,9.89,41,8.93,37.43,8.93Zm-.28,8.28h-1V10.76h1a1.59,1.59,0,0,1,1.62.87A6.5,6.5,0,0,1,39,14C39,15.86,39,17.21,37.15,17.21Z"/><path class="cls-2" d="M56.94,23.74V20.06a3.12,3.12,0,0,0-.72-2.34,3.08,3.08,0,0,0-2.09-1H53.8v0l.28,0c2-.32,2.86-1.81,2.86-4,0-3.24-1.74-3.76-5.89-3.76H47.27V25.84h3.41v-8h1A2,2,0,0,1,53.52,20v3.73a4.51,4.51,0,0,0,.44,2.1h3.36A5.61,5.61,0,0,1,56.94,23.74ZM51,16h-.35V10.76H51c2.12,0,2.49.84,2.49,2.6S53.15,16,51,16Z"/><path class="cls-2" d="M70.13,9.57a6.33,6.33,0,0,0-6.8,0,4.65,4.65,0,0,0-1.45,3.81v8a4.68,4.68,0,0,0,1.45,3.82,6.39,6.39,0,0,0,6.8,0,4.68,4.68,0,0,0,1.45-3.82v-8A4.65,4.65,0,0,0,70.13,9.57Zm-2,12.76c0,1.51-.9,1.73-1.43,1.73s-1.43-.22-1.43-1.73V12.44c0-1.51.89-1.73,1.43-1.73s1.43.22,1.43,1.73Z"/><path class="cls-1" d="M87.16,8.93h-5c-.09.54-2.75,16.16-2.87,16.91H82c.07-.5.66-4.32.66-4.32H85.5s.41,3.79.47,4.32h3.37C89.24,25.11,87.23,9.5,87.16,8.93ZM83,19.53l1.11-8.87,1.13,8.87Z"/><path class="cls-1" d="M130.65,8.93H125.6c-.09.54-2.75,16.16-2.87,16.91h2.75l.68-4.32H129s.41,3.79.46,4.32h3.38C132.74,25.11,130.72,9.5,130.65,8.93Zm-4.13,10.6,1.11-8.87,1.13,8.87Z"/><path class="cls-1" d="M101.67,25.56c1.37-.71,2-2.07,2-4.17v-8a4.65,4.65,0,0,0-1.45-3.81,6.33,6.33,0,0,0-6.8,0A4.65,4.65,0,0,0,94,13.38v8a4.68,4.68,0,0,0,1.45,3.82,5.28,5.28,0,0,0,3.4,1c.22,0,.42,0,.63,0l.36,0,0,.36c.12,2.12.89,2.49,3.59,2.52V26.66h-2v-1Zm-1.38-3.23c0,1.51-.9,1.73-1.43,1.73s-1.43-.22-1.43-1.73V12.44c0-1.51.9-1.73,1.43-1.73s1.43.22,1.43,1.73Z"/><path class="cls-1" d="M114.86,21.27a6.44,6.44,0,0,1-.16,1.86,1.24,1.24,0,0,1-1.3.93,1.21,1.21,0,0,1-1.26-.94,6.74,6.74,0,0,1-.15-1.85V8.93h-3.41V20.77a7.28,7.28,0,0,0,.63,3.55c.72,1.26,2.09,1.87,4.19,1.87,3.5,0,4.77-1.32,4.87-5V8.93h-3.41Z"/><path class="cls-2" d="M36.19,1.35l-.34-1L25.54,4.55A9.6,9.6,0,0,0,21,8.36h0a10.93,10.93,0,0,0-1.67,5.93l.08,11.92h1l.07-1c.9-8.82,2.34-11.77,4-14.34s3.67-5.07,11-9.13Z"/><path class="cls-1" d="M16.14,8.36h0a9.58,9.58,0,0,0-4.51-3.81L1.3.36,1,1.35l.79.42c7.3,4.06,9.33,6.57,11,9.13s3.08,5.52,4,14.34l.07,1h1l.07-11.92a10.85,10.85,0,0,0-1.67-5.93Z"/><path class="cls-1" d="M137.49,4.39a3.53,3.53,0,0,1,1.71.45,3.17,3.17,0,0,1,1.3,1.29,3.49,3.49,0,0,1,0,3.48,3.2,3.2,0,0,1-1.29,1.29,3.48,3.48,0,0,1-3.46,0,3.2,3.2,0,0,1-1.29-1.29,3.49,3.49,0,0,1,0-3.48,3.11,3.11,0,0,1,1.3-1.29A3.55,3.55,0,0,1,137.49,4.39Zm0,.58a3,3,0,0,0-1.43.38A2.67,2.67,0,0,0,135,6.42a3,3,0,0,0-.39,1.46A2.94,2.94,0,0,0,135,9.33,2.85,2.85,0,0,0,136,10.4a3,3,0,0,0,1.45.39,2.89,2.89,0,0,0,1.44-.39A2.71,2.71,0,0,0,140,9.33a3,3,0,0,0,.39-1.45,2.9,2.9,0,0,0-.4-1.46,2.65,2.65,0,0,0-1.08-1.07A3,3,0,0,0,137.49,5ZM136,9.81V6.06h1.28a3.2,3.2,0,0,1,1,.1.94.94,0,0,1,.47.36,1,1,0,0,1,.17.55,1,1,0,0,1-.29.72,1.22,1.22,0,0,1-.78.34,1.1,1.1,0,0,1,.32.2,4,4,0,0,1,.55.74l.46.74h-.74L138,9.22a3.21,3.21,0,0,0-.64-.88.74.74,0,0,0-.48-.13h-.35v1.6Zm.6-2.11h.73a1.23,1.23,0,0,0,.72-.16.5.5,0,0,0,.19-.41.49.49,0,0,0-.09-.3.52.52,0,0,0-.26-.2,2,2,0,0,0-.61-.06h-.68Z"/></svg>